<svg width="109" height="16" viewBox="0 0 109 16" fill="none" xmlns="http://www.w3.org/2000/svg">
<path d="M6.21387 10.4365C6.21387 9.99902 6.05892 9.66178 5.74902 9.4248C5.44368 9.18783 4.88997 8.94857 4.08789 8.70703C3.28581 8.46549 2.64779 8.19661 2.17383 7.90039C1.26693 7.33073 0.813477 6.58789 0.813477 5.67188C0.813477 4.86979 1.13932 4.20898 1.79102 3.68945C2.44727 3.16992 3.2972 2.91016 4.34082 2.91016C5.03353 2.91016 5.65104 3.03776 6.19336 3.29297C6.73568 3.54818 7.16178 3.91276 7.47168 4.38672C7.78158 4.85612 7.93652 5.37793 7.93652 5.95215H6.21387C6.21387 5.43262 6.0498 5.02702 5.72168 4.73535C5.39811 4.43913 4.93327 4.29102 4.32715 4.29102C3.76204 4.29102 3.32227 4.41178 3.00781 4.65332C2.69792 4.89486 2.54297 5.2321 2.54297 5.66504C2.54297 6.02962 2.71159 6.33496 3.04883 6.58105C3.38607 6.82259 3.94206 7.05957 4.7168 7.29199C5.49154 7.51986 6.11361 7.7819 6.58301 8.07812C7.05241 8.36979 7.39648 8.70703 7.61523 9.08984C7.83398 9.4681 7.94336 9.91243 7.94336 10.4229C7.94336 11.2523 7.62435 11.9131 6.98633 12.4053C6.35286 12.8929 5.49154 13.1367 4.40234 13.1367C3.68229 13.1367 3.01921 13.0046 2.41309 12.7402C1.81152 12.4714 1.34212 12.1022 1.00488 11.6328C0.672201 11.1634 0.505859 10.6165 0.505859 9.99219H2.23535C2.23535 10.5573 2.4222 10.9948 2.7959 11.3047C3.1696 11.6146 3.70508 11.7695 4.40234 11.7695C5.00391 11.7695 5.45508 11.6488 5.75586 11.4072C6.0612 11.1611 6.21387 10.8376 6.21387 10.4365ZM15.2783 8.55664H11.1904V11.6191H15.9688V13H9.46094V3.04688H15.9209V4.44141H11.1904V7.18945H15.2783V8.55664ZM25.2725 13H23.543L19.1064 5.93848V13H17.377V3.04688H19.1064L23.5566 10.1357V3.04688H25.2725V13ZM27.3164 13V3.04688H30.2559C31.1354 3.04688 31.9147 3.24284 32.5938 3.63477C33.2773 4.02669 33.806 4.58268 34.1797 5.30273C34.5534 6.02279 34.7402 6.84766 34.7402 7.77734V8.27637C34.7402 9.21973 34.5511 10.0492 34.1729 10.7646C33.7992 11.4801 33.2637 12.0316 32.5664 12.4189C31.8737 12.8063 31.0785 13 30.1807 13H27.3164ZM29.0459 4.44141V11.6191H30.1738C31.0807 11.6191 31.7757 11.3366 32.2588 10.7715C32.7464 10.2018 32.9948 9.38607 33.0039 8.32422V7.77051C33.0039 6.69043 32.7692 5.86556 32.2998 5.2959C31.8304 4.72624 31.1491 4.44141 30.2559 4.44141H29.0459Z" fill="#FEFEFE"/>
<path d="M108.354 8.35355C108.549 8.15829 108.549 7.84171 108.354 7.64645L105.172 4.46447C104.976 4.2692 104.66 4.2692 104.464 4.46447C104.269 4.65973 104.269 4.97631 104.464 5.17157L107.293 8L104.464 10.8284C104.269 11.0237 104.269 11.3403 104.464 11.5355C104.66 11.7308 104.976 11.7308 105.172 11.5355L108.354 8.35355ZM60 8.5L108 8.5V7.5L60 7.5V8.5Z" fill="#FEFEFE"/>
</svg>
